<svg xmlns="http://www.w3.org/2000/svg" viewBox="0 0 1408 768"><path fill="#28a69d" d="M613 378c-1.414-2.781-2.048-2.658-5.014-.672-6.521 4.365-18.667 8.626-30.386 10.659L566 390l-11.75.071c-11.586.07-11.79.031-14.62-2.75-4.276-4.203-5.809-12.691-5.25-29.071.364-10.68.733-13.25 1.898-13.25.795 0 4.345 1.314 7.888 2.921 16.668 7.558 59.079 19.35 63.496 17.655 1.987-.763 1.563-.961-25.73-12.05-16.439-6.679-34.346-15.294-39.106-18.813-3.938-2.911-9.737-12.121-16.192-25.713-7.64-16.087-17.222-40.339-18.978-48.03-.812-3.558-1.967-8.158-3.656-13.97l.966-6.146c.602-3.831 2.203-8.206 4.25-11.614 1.806-3.008 3.171-5.867 2.784-7.24l.943.524c.519.288 3.502-1.112 6.628-3.112 7.817-5 10.937-5.165 22.926-1.21l9.997 3.298-3.997-3.618c-4.73-4.281-9.964-7.039-17.497-9.221-3.025-.876-6.518-2.313-7.763-3.193C520.607 203.609 517 197 517 194.04c0-1.122-.45-2.04-2-2.04l4.486-5.029c4.164-4.668 5.205-5.242 24.514-10.971l1 1 .555 1.365c.402.988-1.798 2.099-7.956 4.019-9.317 2.905-11.599 4.931-11.599 10.303 0 3.816.297 4.013 14.977 9.953 5.762 2.332 10.599 4.042 11.023 3.36l1.75 1.562c.962.859 4.337 3.109 13.25 8.438l8.137 5.5c4.475 3.025 8.795 5.5 9.599 5.5 1.197 0 1.445-1.908 1.264-21v-5l4.097-.562c2.253-.309 5.628-1.209 10.903-3.438l3.75 2.084c5.45 3.029 11.083 8.751 13.758 13.977 2.066 4.036 11.326 35.131 17.552 58.939 2.906 11.114 3.193 11.588 8.726 14.395C654.843 291.498 687.728 311.421 692 315l-2.71.587c-4.782 1.035-9.741 4.139-11.54 7.222-.962 1.65-1.75 4.168-1.75 8.191h-1.763c-.97 0-4.172-1.622-7.116-3.604s-8.346-4.839-12.004-6.348c-6.06-2.499-14.058-7.302-24.561-14.751-6.491-4.604-7.308-6.941-9.025-25.826-2.237-24.607-3.178-31.518-4.465-32.805-.859-.859-1.01 7.268-.066 66.334l.013 9.492.013 9.492 5.988 3.023c3.293 1.662 6.437 3.916 7.986 6.993l-3.934.554c-5.176.729-8.754 3.671-10.156 8.352-1.321 4.409-.682 6.052 5.09 13.094l-2.75 1.132c-3.232 1.33-6.25 7.061-6.25 11.868m-58.39-111c-1.895-4.125-3.483-6.749-3.528-5.831-.079 1.599 11.418 35.996 14.482 43.329 1.367 3.271 3.2 4.391 24.615 15.027 12.726 6.321 23.349 11.281 23.606 11.024s-1.644-1.724-4.224-3.259-7.474-4.613-10.876-6.842-10.685-6.609-16.185-9.732l-10-5.678-7.222-15.269c-3.972-8.398-8.773-18.644-10.668-22.769m-2.11-46c-.275 0-.5.225-.5.5s.225.5.5.5.5-.225.5-.5-.225-.5-.5-.5m22.858 7c-1.106 0-1.357.519-.849 1.75 2.055 4.975 2.634 11.134 2.328 24.75-.288 12.816-.119 15 1.163 15 1.279 0 1.5-2.722 1.499-18.5-.001-19.077-.708-23-4.141-23m16.116-4c-1.856 0-1.863-.075.504 5.141 1.661 3.66 1.982 6.577 2 18.192.017 10.618.313 13.735 1.272 13.411.927-.313 1.244-4.277 1.224-15.333-.022-12.258-.338-15.489-1.776-18.161-.962-1.788-2.413-3.25-3.224-3.25m25.602-6.808c-1.109-.37-1.254.491-.73 4.313.36 2.626.654 8.591.654 13.257 0 7.189.215 8.304 1.411 7.312 1.778-1.476 3.251.423 1.74 2.244-.959 1.155 1.105 22.271 2.293 23.459.25.25 1.839-.029 3.533-.619s3.741-.82 4.551-.509c2.169.832 1.927-.647-2.988-18.21-6.818-24.365-8.954-30.744-10.464-31.247m8.06 67.037c-2.205 2.146-.964 11.921 2.101 16.552 2.984 4.508 16.004 12.61 22.105 13.755 2.042.383 4.143 1.502 4.669 2.485 1.393 2.603 15.446 9.934 17.842 9.307 1.091-.285 2.529-1.834 3.195-3.443 1.338-3.231 6.337-7.885 8.47-7.885 3.174 0 2.164-2.025-2.417-4.843-3.171-1.951-5.667-2.821-7.053-2.459-1.366.357-2.943-.171-4.346-1.454-1.211-1.108-3.226-2.325-4.478-2.705-1.323-.402-2.161-1.351-2-2.269.275-1.57-2.544-3.525-14.946-10.366-9.168-5.057-11.075-6.698-11.82-10.168-.382-1.78-1.204-4.136-1.826-5.236-1.082-1.912-1.133-1.893-1.154.424-.012 1.333-.646 2.632-1.409 2.886-.963.321-1.188-.057-.735-1.237.718-1.872-1.812-7.573-3.36-7.573-.536 0-1.051 2.138-1.145 4.75-.283 7.853-.338 8.16-1.693 9.479"/><path fill="#296089" d="M857 499c2.53 3.401 1.659 9.478-4.157 29-3.714 12.469-6.289 21.412-11.8 41-1.161 4.125-2.767 9.188-3.569 11.25s-1.033 3.75-.513 3.75c1.38 0 5.019-8.734 5.157-12.377l.119-3.123.881 2.75L844 574l1.778 2c.978 1.1 2.553 2 5.222 2l-8 5-3.5 1.685c-1.925.927-3.5 2.052-3.5 3.315l-4-1 .909-1.25c.5-.688 1.791-4.85 2.869-9.25s4.115-15.2 6.747-24c5.198-17.378 5.803-21 3.509-21-.951 0-2.281 2.633-3.788 7.5-1.277 4.125-2.815 9.075-3.418 11s-1.883 5.3-2.844 7.5-2.538 7.15-3.505 11c-1.755 6.987-4.088 12.346-5.979 13.735-3.139 2.306-14.262-.694-75-20.232-20.955-6.741-31.668-10.002-32.873-10.009-.62-.003-2.364-.679-6.627-2.994l-10-3v-2c2.868 1.48 6.918 2.83 10.85 3.955L720 550l6.564 1.749c6.344 1.69 6.541 1.688 5.861-.083-.387-1.008-1.541-2.246-4.425-3.666l1.846-.366c1.693-.336 1.753-.826.734-5.932-.611-3.061-1.415-5.87-1.787-6.242s-.211-1.419.357-2.328c.714-1.143.695-2.651-1.15-8.132l-2-1 .022-.75c.012-.412-2.263-1.603-5.055-2.645-3.726-1.391-5.373-1.599-6.189-.783S714.509 524.403 720 547c-3.17.988-3.879.57-4.243-.823-.285-1.091-1.248-2.253-2.138-2.581L712 543l1.5-.469c1.899-.593 1.97-5.414.09-6.135-2.194-.842-7.59 2.432-7.59 4.604-2.141-1.789-1.781-2.751.283-5.017L709 533l.554-1.4c.305-.77-.42-4.754-1.611-8.853l-2.166-7.452L695 512c-4.677-1.782-6.297-2.037-6.617-1.717s-.088 2.188.517 4.15L690 518h-.67c-.368 0-1.268-2.25-3.33-10l-1-4 12 4 4.67 1.497c2.568.823 4.87 1.296 5.115 1.051s-.056-1.819-1.785-6.548l.12-2.25c.066-1.237-1.109-7.2-2.611-13.25-3.107-12.512-5.905-16.372-10.509-14.5v-.574c0-.316-2.7-1.666-12-5.426l-2.75-.56-2.75-.559L678 478l1 3 1.329 4.75c.731 2.612 2.081 7.337 4.671 16.25v1l-2.562-5.048c-1.409-2.777-3.463-8.514-4.564-12.75S675.225 476.712 673 474l-2-10-8-22-1.989-6.75c-1.094-3.712-1.994-7.538-2-8.5-.017-2.758 3.691-2.16 14.421 2.323 10.135 4.235 15.495 4.683 10.561.883-1.371-1.056-3.023-1.731-3.67-1.498s-1.655-.153-2.24-.858-6.005-3.218-12.044-5.585l-10.981-4.303-1.541-5.301c-2.491-8.569-5.321-14.411-6.981-14.411-.845 0-1.536.601-1.536 1.335 0 1.636 3.624 13.056 5.447 17.165.732 1.65 1.553 3.9 1.826 5s1.898 6.837 6.727 23.5l2 5-1 2-8.042-24.75-8.041-24.75-5.231-5c-2.877-2.75-8.483-7.952-12.458-11.561-6.033-5.477-7.228-7.079-7.228-9.691 0-1.721.45-3.382 2-4.248l1.75.36c1.559.321 23.864 19.996 26.989 23.807.681.831 2.706 5.694 4.5 10.805 3.133 8.928 3.418 9.351 7.261 10.789 2.2.823 21.1 8.477 42 17.009s46.1 18.778 56 22.769c68.922 27.784 92.476 37.799 97.5 41.461m-141-26c0-6.408-.419-9.895-.931-11.884s-1.427-6.091-2.032-9.116c-1.077-5.384-1.209-5.546-6.318-7.67-2.87-1.194-5.781-2.431-6.469-2.75L699 441h-4l-.08.75c-.044.413 1.428 7.501 3.27 15.752l3.35 15.002 7.201 2.825c3.961 1.554 7.664 2.539 8.23 2.189 1.823-1.127 1.094-4.518-.971-4.518m21 7v-1l-.976-7.25c-2.319-17.22-1.107-15.464-15.024-21.75h-4l2.143 14.25c1.178 7.837 2.641 14.751 3.25 15.364 2.096 2.108 14.962 6.431 16.013 5.38.659-.659.589-1.331-1.406-2.994zm19-3v-5l.534-2.75c.317-1.63-.075-3.611-.961-4.864-2.419-3.418-13.218-6.728-17.573-5.386l1 4v2l2 11v3l1 8 7.223 3.12c6.392 2.76 7.313 2.933 8.777-.12zm-89-48-5-2-.059.75c-.032.413 2.251 8.007 5.074 16.876l5.133 16.125L694 469l1.25.25c.688.138 1.138-.312.75-2.25l-.02-3.314c-.011-1.823-1.136-6.773-4.98-18.686v-2.5c0-4.499-3.769-6.802-9-5.5l-1.332-1.815c-.733-.998-4.108-2.799-13.668-6.185m40 50h-3l2.962 14.25c1.629 7.837 3.204 15.263 4.038 18.75v.459c0 .253 2.925 1.378 13 4.541l2.25.937c8.543 3.559 16.054 5.993 16.895 5.473.545-.337.736-1.242-.145-3.41l-2-16-.636-5.75c-.35-3.163-1.074-6.305-1.609-6.983s-2.498-1.69-7.755-3.267l-5-1-.976.274c-.589.165-.004 6.003 1.471 14.695 1.346 7.932 2.246 14.623 2 14.869s-1.133-.067-3.495-1.838v-1l-4-18-.86-5.575c-.473-3.066-1.486-6.174-2.25-6.907S714.362 481.469 707 479m27 47h-2l1.661 11.25c.913 6.188 1.701 12.6 1.75 14.25.087 2.912.412 3.108 11.089 6.686 28.8 9.65 72.914 22.901 75.316 22.624 1.496-.173 2.573-.863 2.184-2.81l2.25-.75c1.68-.56 2.808-2.471 4.453-7.541 1.212-3.735 1.98-7.372 1.708-8.081-.622-1.62-9.988-4.628-14.411-4.628l-1.372-.558c-1.071-.436-1.622 1.704-2.506 9.75-1.119 10.182-1.157 10.287-5.122 6.808h.445c.799 0 2.429-17.586 1.733-18.695-.373-.594-2.478-1.83-4.678-2.746-3.886-1.619-4.021-1.608-5.5 2.441l.083-.75c.046-.412-.591-1.425-1.416-2.25-1.333-1.333-1.51-.312-1.584 9.191-.046 5.88-.511 10.955-1.033 11.278s-1.422-.326-3.05-3.469l.25-10.219c.245-10.028.203-10.24-2.25-11.391-5.796-2.72-7-2.615-7 .61l-1.5-.607c-1.276-.516-1.5.939-1.5 9.732v10.338L777 563l.562-10.972.562-10.972-3.312-1.389c-1.966-.824-3.82-1.039-5.812.333l-.812-1.675c-.503-1.038-1.297-1.376-2.088-.887-1.024.633-1.05 3.139-.13 12.675 1.295 13.426.476 15.054-3.97 7.887h.617c.339 0 .114-2.925-1.617-13l.077-4.872.078-4.871L751 532l-1.25-.25c-1.46-.292-1.237 5.358.689 17.543.678 4.286.885 8.007.461 8.269s-1.925-.657-5.9-4.562h.639c1.78 0 1.254-4.936-.639-6l.427-4.25c.235-2.338-.103-6.478-.75-9.201-1.135-4.774-1.347-4.998-10.677-7.549m20-29-4.436-2.099c-2.44-1.154-4.915-1.829-6.564-.901l2 11v4l1.06 8.365 1.059 8.366 6.691 2.582c12.83 4.952 23.068 8.142 23.797 7.413.404-.404-.017-1.632-2.607-4.726l.937-2.25c.515-1.237.965-3.487 1.063-7.75l1-1v-3l-1-1v-4.429c0-2.436-.616-5.044-1.368-5.796S772.405 503.866 766 502h-1v-.745c0-.41-.671-.297-1.491.25-1.282.856-1.347 2.734-.46 13.419.567 6.833.756 13.133.42 14-.543 1.4-.771 1.381-3.469-1.924l-1-21-.015-2.75c-.02-3.641-.815-4.637-4.985-6.25m13-28-7-2v6l.569 10.25c.313 5.638.997 10.687 1.52 11.22s3.979 2.191 7.681 3.684c5.611 2.263 6.855 2.476 8.23-.154v-11.878c0-8.321-.374-12.166-1.25-12.841-.688-.53-3.163-1.711-9.75-4.281m10.5 60c-.275 0-.5.225-.5.5s.225.5.5.5.5-.225.5-.5-.225-.5-.5-.5m6.5-53h-3l.25 13.69.25 13.69 7.75 2.513c6.983 2.264 7.75 2.345 7.75-.893l1-10 .25-6.583.25-6.583zm1 33v-.714c0-.393-.9-.618-4-.286l.406 15.159.406 15.16 4.844 1.865c2.664 1.026 10.469 3.835 17.344 6.244s16.251 5.776 20.835 7.482 8.778 2.829 9.319 2.495.727-1.237-.154-3.405l4-11 1.589-5.047c.874-2.776 1.36-5.645 1.079-6.377S836.297 527.841 823 523v-.745c0-.41-.689-.297-1.53.25-1.063.691-2.025 4.732-3.153 13.245-1.65 12.451-2.771 14.614-5.317 10.25l2-12 .633-6.887.633-6.887L809 518l-.055-.75c-.03-.412-1.381.263-5.945 3.75l-.25-2.172c-.138-1.194-.764-2.34-1.393-2.547-.802-.264-1.25 3.193-1.5 11.588-.196 6.581-.629 12.236-.962 12.569s-1.57.145-4.895-1.438l.888-.25c.488-.138.938-4.188 1.112-17.75l1.105-3.021c.797-2.178.801-3.387.017-4.332-.598-.721-3.57-2.061-12.122-4.647m21-23-.014-.75c-.008-.413-.887-.717-1.953-.676-1.677.064-2.012 1.041-3.033 14.426l.25 5.676.25 5.676 6.963 2.849c3.83 1.567 7.589 2.609 8.354 2.316.766-.294 1.119-1.204.183-3.517l.574-3.75c.316-2.062.991-5.888 2.426-13.25v-2l.066-.75c.121-1.371-10.858-6.25-14.066-6.25m21 8-1.228-.25c-.82-.167-1.816 3.152-4.772 20.25v1.799c0 1.362 2.609 2.813 10.729 5.966 8.942 3.473 10.858 3.923 12.271 1.235l2.587-9.053c1.423-4.979 2.362-9.639 2.087-10.355S843.41 500.425 827 494"/><path fill="#27444d" d="m542 391 4.75.546c2.612.301 8.013.076 19.25-1.546l11.6-2.013c11.719-2.033 23.865-6.294 30.386-10.659 2.966-1.986 3.6-2.109 5.014.672l8.452 47.324 8.452 47.324 1.52 32.426c.836 17.834 1.827 41.596 2.203 52.804.673 20.042.649 20.409-3.627 24.122l-3.25 1.158c-1.825.65-7.962 1.088-24.75.842l-3.75-1.345c-3.499-1.255-3.8-1.689-5.25-11.655h.724c.398 0 .888 1.726 1.089 3.837.291 3.051 1.014 4.222 3.527 5.711l3.16 1.873.274-4.461c.151-2.453-.391-12.11-1.206-21.46s-1.957-23.975-2.538-32.5c-2.507-36.786-3.164-43.077-5.59-53.5-6.471-27.804-12.412-56.329-12.425-59.659-.02-4.977 6.767-14.963 14.157-20.828 3.12-2.476 5.561-4.613 5.424-4.75s-2.914.621-6.172 1.684-8.551 2.45-11.762 3.082c-6.843 1.347-6.844 1.349-11.212 18.295-3.095 12.009-3.054 12.559 2.174 28.352C573.931 440.623 575 445.011 575 449l-4.208-13.5c-2.315-7.425-4.525-13.5-4.913-13.5s-4.304 13.893-8.703 30.873-9.164 33.34-10.59 36.354c-2.942 6.219-10.566 13.555-42.376 40.773-10.962 9.38-20.563 16.824-25.21 18l-9-3-3.45-2.05c-1.897-1.128-4.372-3.603-7.55-8.95l.75.05c.413.028 1.081-.31 1.486-.75 20.003-21.736 32.801-34.561 45.946-46.046 5.325-4.652 9.972-9.2 10.325-10.106s2.172-16.723 4.04-35.148 3.634-34.476 3.924-35.67c.353-1.454 1.6-2.403 3.778-2.874 4.285-.926 11.656-4.716 14.621-7.518l2.37-2.239zm59-6.5c0-.275-.225-.5-.5-.5s-.5.225-.5.5.225.5.5.5.5-.225.5-.5"/><path fill="#2c3573" d="M749 380c0-3.064.929-4.017 2.445-4.397 2.019-.507 2.542-1.396 3-5.108L755 366l20.25 8.855c17.451 7.631 84.73 37.717 142.67 63.801 9.583 4.314 17.6 8.38 17.814 9.035s-.989 1.893-5.738 4.309h-1.468c-.808 0-5.166-1.807-9.685-4.015-5.281-2.581-8.508-3.653-9.847-1.985l-2 16v2l-4 3-1-3c-1.747-2.334-1.821-3-1.291-3 .525 0 1.498-2.138 2.163-4.75l2.228-8.743c.893-3.498.772-4.191-.972-5.604-1.095-.887-3.99-1.886-6.433-2.221-3.49-.478-4.587-1.1-5.114-2.896-.607-2.067-.763-2.118-1.626-.536l-.955 1.75-.908 11.565-.907 11.565 12.815 6.87-1.724.915-1.724.915-3.552-1.83h-1l-1-1h-1l-1-1h-1l-1 1-1 4v2.433c0 1.596-.725 2.663-2.109 3.102-1.99.632-2.074.41-.891-8.535-.439-3.853-1.955-4.97-6.487-6.788-4.422-1.774-6.317-2.116-7.25-1.307L868.996 461v6c-1.512 6.587-1.963 10.188-1.976 12.25s-.474 3.75-1.024 3.75c-.571 0-1-3-1-7v-7l-.5-13.384-5.75-2.308-5.75-2.308-.75-.002c-.412-.001-.862 5.624-1.25 25.002-2.325 0-3-.675-3-1.5V473l-.25-12.061-.25-12.06-6.954-2.932-6.954-2.932.408 24.985h-3c-.073-26.923.129-26.05-6.771-29.238-6.271-2.898-7.612-2.734-6.786.832l.557 2.406.581 10.279c.32 5.654.995 11.729 2.419 16.721-1.369 1.679-2.944 2.804-4.383 3.583L813.996 474l-2.25-.635c-1.237-.349-2.549-1.101-2.914-1.67s-1.828-1.183-5.836-1.695l-1-8c-.042-9.712-.717-14.662-1.527-17.266L798.996 440c-1.161-11.658-2.444-14.843-5.487-13.612l-1.513.612v-6h2c2.849 0 2.833-1.646 1.369-14.618l-1.651-14.619-6.408-2.999c-3.525-1.649-6.637-2.77-6.915-2.492s.009 4.043.639 8.367 1.105 8.198 1.056 8.611l-.09.75 1 5c-.523 2.628-1.198 3.529-1.837 3.696l-1.163.304-4.95-29.5-6.525-3.25-6.525-3.25h-1c-2.478-1.713-3.573-1.825-4.043-1.354-.468.47.925 7.49 3.096 15.604l3.947 14.75.25 1.566c.143.893 2.934 2.611 12.75 6.434l-2 3-4.177-1.489c-2.298-.819-4.398-1.269-4.667-1s.486 4.764 3.844 19.489c.956 1.714-2.559 9-4.342 9h-.658c-5.352-19.763-8.952-33.938-11.453-44.25L748.996 380zm61 34 1.205-14.724-5.603-2.138L800 395h-3l1.641 14.62 1.641 14.62 5.517 2.525c4.235 1.939 5.828 2.26 8.201.235.073-8.525-.345-11-.88-11s-1.158.788-1.384 1.75c-.3 1.277-.591 1.006-1.074-1zm54 37c1.352-1.163 2.024-7.024 2.365-13.775l.621-12.274-2.493-.976L862 423c-7.96-3.837-10.661-4.736-11.136-4.475L850 419l1 3v11.492c0 10.489.175 11.579 4 13.508l1 1h1l1 1h2l2 1 1 1zm19 7c1.365-.752 2.068-4.689 2.443-9.235.588-7.128.398-8.905-1.384-12.917-1.687-3.8-2.845-4.96-6.313-6.324-2.335-.919-4.584-1.637-4.996-1.597L872 428l-.938.25c-.516.138-1.19 2.388-2.062 9.75v15.111l5.25 2.381c2.888 1.31 5.812 2.41 7.75 2.508zm-66 6c-1.34-1.938-2.027-7.45-2.391-13.5-.848-14.075-1.015-15-2.704-15-1.513 0-3.115 7.637-2.255 10.748.266.961.004 2.199-.583 2.75L808 450l.432-8.96.433-8.959L802 430l1 9h-.53c-.677 0 1.645 21.619 2.437 22.695.326.443 2.836 1.863 5.578 3.156 4.438 2.093 5.069 2.176 6.515-.851m-42.261-86.764c-.681-.545-4.258-2.433-7.948-4.197-6.207-2.968-8.791-3.268-8.791-1.022 0 1.003 13.667 7.983 15.631 7.983 1.866 0 2.521-1.635 1.108-2.764m71.134 31.359c-9.071-3.952-20.534-9.113-37.172-16.733-7.04-3.224-12.991-5.862-13.225-5.862s-3.391-1.359-7.016-3.019-6.992-2.771-7.482-2.468c-1.367.845-.028 3.336 2.167 4.033 1.078.342 4.68 2.159 8.004 4.038s6.69 3.416 7.48 3.416 3.658 1.125 6.371 2.5 5.793 2.5 6.844 2.5 2.471.675 3.156 1.5 1.802 1.5 2.482 1.5c1.167 0 10.257 4.356 13.518 6.478 3.026 1.969 10.617 4.022 14.873 4.022h4.373zm34.48 15.438c-16.341-7.679-23.432-10.354-24.535-9.251-.709.709-.294 1.484 1.325 2.477 7.279 4.462 12.647 7.317 14.857 7.903 1.375.364 5.332 1.673 8.793 2.908 4.435 1.582 6.605 1.932 7.353 1.184s-1.553-2.289-7.793-5.221m46.397 20.993c-2.888-1.282-9.006-4.086-13.597-6.233-19.19-8.974-21.153-9.597-21.153-6.706 0 1.7 36.638 18.265 38.672 17.485 2.45-.94 1.363-2.2-3.922-4.546M815 403h-.526c-.289 0 .094 6.295.853 13.99l1.379 13.99 5.772 2.552c3.174 1.404 5.94 2.309 6.522 1.468l.01-13.25c.008-10.824-.267-13.387-3.01-14.75l-3.497-.56c-2.065-.331-3.936-1.38-4.568-2.561-.589-1.1-1.49-1.748-2.935-.879m31 40h.679c.374 0 .711-6.043.75-13.429l.071-13.429-6.845-3.072c-3.764-1.689-7.252-2.846-8.655-2.07l1 13 .25 7.116.25 7.116z"/><path fill="#ac173b" d="m941 466-1 6-.578 1.523c-.318.838-3.029 9.725-6.024 19.75-13.842 46.324-12.644 43.221-17.802 46.146-2.253 1.277-12.646 7.056-23.096 12.842s-23.309 12.967-28.577 15.959-10.78 5.741-14.923 6.78c1.527-1.938 2.65-4.975 3.482-8s2.647-9.325 4.033-14 4.797-16.6 7.58-26.5 5.693-18.986 6.466-20.19c1.344-2.093 9.643-6.979 42.939-25.282 8.25-4.535 17.588-9.772 20.75-11.637L940 466z"/><path fill="#147e78" d="M566 390c-11.237 1.622-16.638 1.847-19.25 1.546L542 391l-6.75-.984c-7.671-1.118-10.504-1.892-18.213-4.972-4.855-1.94-5.55-2.008-7.037.956v-2.378c0-1.308-.705-2.962-1.566-3.677-3.124-2.593-4.27-6.725-5.342-19.271-1.758-20.571-1.192-91.398.908-113.67 1.689 5.812 2.844 10.412 3.656 13.97 1.756 7.691 11.338 31.943 18.978 48.03 6.455 13.592 12.254 22.802 16.192 25.713 4.76 3.519 22.667 12.134 39.106 18.813 27.293 11.089 27.717 11.287 25.73 12.05-4.417 1.695-46.828-10.097-63.496-17.655-3.543-1.607-7.093-2.921-7.888-2.921-1.165 0-1.534 2.57-1.898 13.25-.559 16.38.974 24.868 5.25 29.071 2.83 2.781 3.034 2.82 14.62 2.75l11.75-.071z"/><path fill="#f4a483" d="M601 197c-5.275 2.229-8.65 3.129-10.903 3.438L586 201l-3.75-.484c-2.183-.282-7.093-2.633-11.75-5.628-6.067-3.901-8.074-4.774-8.305-3.613-.503 2.528 5.442 8.323 10.982 10.706 3.769 1.621 6.237 2.067 12.823 1.019v3l-.592 2.169c-.325 1.193-1.866 3.443-3.423 5-2.487 2.487-3.57 2.831-14.985 2.831-8.913-5.329-12.288-7.579-13.25-8.438L552 206v-26.339c0-2.609-.557-3.595-2.549-4.502-2.925-1.333-6.396-8.182-6.429-12.686-.031-4.285 2.49-7.473 5.912-7.473 3.289 0 4.805 1.552 6.584 6.741.709 2.068 2.008 3.904 2.886 4.082 1.299.263 1.602-.668 1.631-5 .02-2.928.679-6.448 1.465-7.823s1.452-4.3 1.48-6.5.494-4.562 2.02-6.5l13.796-.352c16.049-.409 21.561-1.853 29.204-7.648l-.088 1.25c-.048.688.177 4.738 1.088 16.75l-4.5.481c-3.12.333-4.5.941-4.5 1.981 0 1.182.953 1.398 9 .538l.06 10.751c.079 14.089-.946 18.316-8.06 33.249m-20.75-42.37c-1.237.332-2.25 1.278-2.25 2.103 0 1.068.649 1.326 2.25.897 1.237-.332 3.263-.608 4.5-.616 1.327-.008 2.25-.629 2.25-1.514 0-1.575-2.781-1.934-6.75-.87m3.5 6.56c-1.311-.252-1.75.328-1.75 2.31s.439 2.562 1.75 2.31c.962-.185 1.75-1.225 1.75-2.31s-.788-2.125-1.75-2.31M594 183h-6l.406 2c.251 1.234 1.209 2 4.594 2l1.831.547c1.039.311 2.878-.308 4.25-1.429 3.646-2.979 1.172-4.497-5.081-3.118m10.75-25.81c-1.311-.252-1.75.328-1.75 2.31s.439 2.562 1.75 2.31c.962-.185 1.75-1.225 1.75-2.31s-.788-2.125-1.75-2.31"/><path fill="#20519d" d="M789 612c1.667-8.732 1.858-13.57 1.499-16.384-.647-5.079-4.311-13.796-5.749-13.678L784 582l-.406-2c-.602-2.961-3.884-2.451-6.436 1-2.59 3.503-4.826 3.777-8.158 1l1-1c4.143-.388 5.529-1.06 5.754-1.744.514-1.567-1.061-2.172-24.254-9.314a5181 5181 0 0 1-33.245-10.367c-13.981-4.432-15.274-4.575-20.19-2.234-3.441 1.638-20.868 25.305-22.177 30.117-1.237 4.544-.543 10.375 1.766 14.84 2.364 4.571 3.311 2.326 3.079-7.298l-.205-8.5 8.236-10.75L697 565c3.225-1.641 5.249-1.866 6.58-1.559L706 564h-1c-2.81 0-4.768 1.237-6.165 2.75-4.343 4.703-13.828 18.148-15.368 21.784L682 592c0 4.43 1.705 8.526 4.648 11.167 1.994 1.79 26.715 11.909 42.602 17.439L739 624c8.711 4.722 11 6.333 10.706 6.627s-1.424.059-2.51-.522c-1.629-.872-2.067-.705-2.5.951-.402 1.537.217 2.333 2.639 3.394 1.954.856 2.496 1.418 1.415 1.468L747 636c-24.8-8.912-32-11.162-32-10.75v.75c-.904.646-2.029.196-3.083-.583L710 624l.025-.75c.014-.412-3.361-1.987-15.025-6.25l-9-4c-9.571-7.202-12.374-12.368-11.84-21.821.365-6.468.654-7.126 7.327-16.706 8.513-12.22 13.604-17.854 17.646-19.528l3.082-1.277-2.858-1.45c-4.868-2.472-9.149-7.272-11.244-12.606-1.104-2.812-7.882-23.674-15.061-46.362L660 452l1-2c.595 1.163 1.669 4.2 2.77 7.5 1.714 5.137 2.378 6.036 4.616 6.25L671 464l2 10c-2.636 1.468-2.313 7.609.518 9.836 1.741 1.369 2.01 2.207 1.314 4.09-.616 1.665-.452 2.844.551 3.971.785.882 1.663 3.853 1.951 6.603.799 7.627 3.499 14.5 5.694 14.5 1.145 0 2.054-.945 2.406-2.5L686 508c2.062 7.75 2.962 10 3.33 10h.67c5.821 17.822 7.857 22.235 9.505 23.733L702 544v2c-4.091 0-6.132-3.058-10.5-15.731-2.2-6.383-4.631-11.815-5.402-12.071-1.06-.352-1.227.116-.687 1.918.393 1.311.83 3.059.97 3.884s.787 2.767 1.437 4.315 1.182 4.497 1.182 6.554c0 5.984 4.746 12.479 11.43 15.641 3.05 1.443 6.564 2.78 7.808 2.972s3.387.651 4.762 1.02c1.912.514 2.147.425 1-.378-.825-.577-1.612-1.965-1.75-3.086L712 549c4.263 2.315 6.007 2.991 6.627 2.994 1.205.007 11.918 3.268 32.873 10.009 60.738 19.538 71.861 22.538 75 20.232 1.891-1.389 4.224-6.748 5.979-13.735.967-3.85 2.544-8.8 3.505-11s2.241-5.575 2.844-7.5 2.141-6.875 3.418-11c1.507-4.867 2.837-7.5 3.788-7.5 2.294 0 1.689 3.622-3.509 21-2.632 8.8-5.669 19.6-6.747 24s-2.369 8.562-2.869 9.25L832 587c-6.21 1.938-8.011 2.838-8.007 3.25l.007.75-14.855-4.248-4.573 2.213c-4.553 2.204-4.572 2.235-4.574 7.374-.002 6.876-2.517 11.703-7.248 13.911z"/><path fill="#12272d" d="m542 391 4.24 2.699-2.37 2.239c-2.965 2.802-10.336 6.592-14.621 7.518-2.178.471-3.425 1.42-3.778 2.874-.29 1.194-2.056 17.245-3.924 35.67s-3.687 34.242-4.04 35.148-5 5.454-10.325 10.106c-13.145 11.485-25.943 24.31-45.946 46.046-.405.44-1.073.778-1.486.75L459 534l-3-7 .008-3.75c.008-3.361 1.17-5.047 11.203-16.25 6.157-6.875 17.164-18.593 24.46-26.04l13.265-13.539 1.977-27.961C508 424.082 509.14 405.763 510 386c1.487-2.964 2.182-2.896 7.037-.956 7.709 3.08 10.542 3.854 18.213 4.972zM575 449c0-3.989-1.069-8.377-2.376-12.324-5.228-15.793-5.269-16.343-2.174-28.352 4.368-16.946 4.369-16.948 11.212-18.295 3.211-.632 8.504-2.019 11.762-3.082s6.035-1.821 6.172-1.684-2.304 2.274-5.424 4.75c-7.39 5.865-14.177 15.851-14.157 20.828.013 3.33 5.954 31.855 12.425 59.659 2.426 10.423 3.083 16.714 5.59 53.5.581 8.525 1.723 23.15 2.538 32.5s1.357 19.007 1.206 21.46l-.274 4.461-3.16-1.873c-2.513-1.489-3.236-2.66-3.527-5.711-.201-2.111-.691-3.837-1.089-3.837H593l-3.919-37.25c-2.156-20.487-4.367-41.111-4.913-45.83S581.336 472.513 575 449"/><path fill="#94c1e5" d="M836 588c0-1.263 1.575-2.388 3.5-3.315L843 583c1.162 2.262 9.375 6.481 19 10.835s22.267 10.201 28.092 12.995c10.522 5.046 10.616 5.123 14.25 11.625L908 625h-1l-3.479-4.736-3.011 2.24c-1.656 1.232-7.735 4.917-13.51 8.188s-18.278 10.372-27.785 15.78c-16.816 9.566-17.485 9.845-24.709 10.309-4.099.263-9.503-.046-12.064-.691-3.905-.983-20.557-7.375-76.192-29.241L739 624l-9.75-3.394c-15.887-5.53-40.608-15.649-42.602-17.439C683.705 600.526 682 596.43 682 592l8-7c-5.299 10.107-3.131 13.631 12 19.503 42.555 16.516 111.72 43.172 117 45.091 6.979 2.538 12.502 2.983 17.882 1.44 4.734-1.358 32.91-17.034 33.572-18.678L871 631c1.552.905 4.027-.22 6.501-1.916L882 626l7-4c6.248-3.027 7.201-4.645 4.25-7.212-.963-.837-14.237-7.207-29.5-14.155z"/><path fill="#6b3d29" d="M608 132c-7.643 5.795-13.155 7.239-29.204 7.648L565 140c3.264-2.895 3.239-3 1.326-3-3.297 0-15.492-6.584-19.576-10.569-8.735-8.523-1.15-18.935 16.489-22.635 6.798-1.426 16.758-.073 27.766 3.773 3.896 1.361 9.228 2.431 12.116 2.431 6.097 0 7.587 1.434 8.06 7.755.175 2.34.656 4.252 1.069 4.25L613 122z"/><path fill="#215b67" d="m470 545 9 3h-1.5c-1.198 0-1.5 1.486-1.5 7.371v7.371L466 564h-2c-1.37 0-2 .667-2 2.117 0 1.656.436 1.982 4 .883l5.25-.208c4.622-.183 5.286.038 5.551 1.856.264 1.812-.378 2.144-5.25 2.717-4.133.486-5.551 1.059-5.551 2.242 0 1.349.886 1.487 5.847.911l5.847-.679 3.653 8.504C483.356 587.02 485 592.456 485 598l-1.714 1.5c-4.625 4.047-16.836-.035-24.39-8.154-5.267-5.661-8.493-12.099-15.961-31.846-3.762-9.949-5.242-15.23-4.935-22.5l5.628-4.513c3.095-2.482 6.696-4.732 10.372-5.487l-1.508 3.487c-2.265 5.237-.664 11.108 4.188 15.362l3.82 3.349z"/><path fill="#1c6e96" d="M839 665c-14.932.269-17.878-.206-23.75-2.351L808 660c-30.612-11.76-44.337-17.16-50.25-19.587L747 636l1.75-.082c1.081-.05.539-.612-1.415-1.468-2.422-1.061-3.041-1.857-2.639-3.394.433-1.656.871-1.823 2.5-.951 1.086.581 2.216.816 2.51.522S747.711 628.722 739 624l7.25 2.849c55.635 21.866 72.287 28.258 76.192 29.241 2.561.645 7.965.954 12.064.691 7.224-.464 7.893-.743 24.709-10.309 9.507-5.408 22.01-12.509 27.785-15.78s11.854-6.956 13.51-8.188l3.011-2.24L907 625c-2.605-1.941-3.081-1.411-3.913 1.676-.566 2.103-1.943 4.837-3.059 6.074L898 635l-1.265-1.142c-1.702-1.537-14.646 7.081-16.735 11.142l-8 4c-22.088 11.458-29.513 15.058-30.75 15.392z"/><path fill="#215b67" d="m600 615-.487-9.25c-.376-7.141-.147-9.763 2.487-13.75l3.148 2.5c2.439 1.937 4.31 2.5 8.309 2.5 6.083 0 8.304-1.4 8.731-5.5.257-2.474 1.057-3.307 8.812-6.5l.75-.056c1.469-.11 10.569 8.531 9.668 9.181-.505.364-2.644 1.887-4.753 3.384-2.576 1.828-3.504 3.052-2.827 3.729s1.975.319 3.954-1.09c4.305-3.065 8.099-4.308 9.965-3.264 1.297.726.822 1.29-2.512 2.991-4.565 2.329-5.914 3.856-4.584 5.186.516.516 2.76-.356 5.363-2.083 5.376-3.566 7.151-3.649 15.641-.728 4.75 1.634 7.195 3.139 11.335 8.75l.041.75c.022.412-1.745 1.778-3.926 3.034-5.022 2.892-17.044 5.217-26.953 5.213-13.741-.005-38.093-2.892-42.162-4.997"/><path fill="#482719" d="m545 177-1-1c-9.552-17.691-12-25.179-12-36.704 0-9.746 1.734-14.59 6.017-16.805 1.975-1.021 2.946-2.485 3.454-5.206 1.039-5.563 7.474-11.346 15.243-13.698 8.614-2.608 22.893-1.807 33.286 1.868 4.125 1.459 10.515 2.917 14.201 3.24 6.342.556 6.758.748 7.75 3.595.577 1.655 1.049 4.516 1.049 6.359V122l-.75.005c-.413.002-.894-1.91-1.069-4.25-.473-6.321-1.963-7.755-8.06-7.755-2.888 0-8.22-1.07-12.116-2.431-11.008-3.846-20.968-5.199-27.766-3.773-17.639 3.7-25.224 14.112-16.489 22.635 4.084 3.985 16.279 10.569 19.576 10.569 1.913 0 1.938.105-1.326 3-1.526 1.938-1.992 4.3-2.02 6.5s-.694 5.125-1.48 6.5-1.445 4.895-1.465 7.823c-.029 4.332-.332 5.263-1.631 5-.878-.178-2.177-2.014-2.886-4.082-1.779-5.189-3.295-6.741-6.584-6.741-3.422 0-5.943 3.188-5.912 7.473.033 4.504 3.504 11.353 6.429 12.686 1.992.907 2.549 1.893 2.549 4.502V183z"/><path fill="#2a958e" d="M625.14 284.23c1.355-1.319 1.41-1.626 1.693-9.479.094-2.612.609-4.75 1.145-4.75 1.548 0 4.078 5.701 3.36 7.573-.453 1.18-.228 1.558.735 1.237.763-.254 1.397-1.553 1.409-2.886.021-2.317.072-2.336 1.154-.424.622 1.1 1.444 3.456 1.826 5.236.745 3.47 2.652 5.111 11.82 10.168 12.402 6.841 15.221 8.796 14.946 10.366-.161.918.677 1.867 2 2.269 1.252.38 3.267 1.597 4.478 2.705 1.403 1.283 2.98 1.811 4.346 1.454 1.386-.362 3.882.508 7.053 2.459 4.581 2.818 5.591 4.843 2.417 4.843-2.133 0-7.132 4.654-8.47 7.885-.666 1.609-2.104 3.158-3.195 3.443-2.396.627-16.449-6.704-17.842-9.307-.526-.983-2.627-2.102-4.669-2.485-6.101-1.145-19.121-9.247-22.105-13.755-3.065-4.631-4.306-14.406-2.101-16.552"/><path fill="#f4a483" d="M622 365c-5.772-7.042-6.411-8.685-5.09-13.094 1.402-4.681 4.98-7.623 10.156-8.352L631 343l11.116 2.461c6.114 1.354 12.201 3.173 13.528 4.042s2.85 1.336 4.356.497c-.912 1.623-.461 3.648.412 5.547L662 359l2 5 .117.75c.064.413-.724 2.55-1.751 4.75-2.328 4.985-8.402 8.414-20.366 11.5l-7-6 2.157.658c1.97.601 2.102.385 1.525-2.5-.509-2.543-1.123-3.158-3.157-3.158-1.578 0-2.525.563-2.525 3l-3-1-1.5-1.714c-.825-.943-1.5-2.245-1.5-2.892 0-.648-1.125-1.451-5-2.394"/><path fill="#f53f52" d="m762 454-16.75-7.146c-9.212-3.93-19.788-8.206-30.25-11.854l-2-2 1-3 1-1 3-2 9.25-4.606c5.087-2.533 9.812-5.233 11.75-7.394l6-3 3.659.766 3.659.766 5.327 19.484c2.93 10.716 5.109 19.821 4.355 20.984"/><path fill="#8642b8" d="M776 430c9.766.955 12.635.764 13.538.091L791 429l-.097.75c-.054.413 1.746 2.888 8.097 10.25l1.473 4.734c.81 2.604 1.485 7.554 1.527 17.266-7.124 4.349-7.311 4.36-12.102 2.699L785 463l-20-8v-12h.658c1.783 0 5.298-7.286 4.342-9l1.401.569c.833.338 2.05-.473 4.599-4.569m18.006 13-2.952-3.5-.027 3.282c-.03 3.708 2.391 10.218 3.8 10.218 1.681 0 3.349-2.87 2.734-4.702-.332-.989-1.932-3.373-3.555-5.298"/><path fill="#f4a483" d="M676 331c0-4.023.788-6.541 1.75-8.191 1.799-3.083 6.758-6.187 11.54-7.222L692 315l9.75 2.641c5.362 1.453 10.763 2.578 14.25 2.359l-.541 1.75c-.298.962.377 4.337 3.541 13.25l-1.402 3.329c-2.635 6.256-12.6 12.607-19.848 12.649-3.327.02-3.75.304-3.75 2.522 0 3.347-2.312 3.203-8-.5 8.844-5.342 10-6.614 10-8.52V342c-2.712-4.981-4.73-7.117-6.234-7.96-2.564-1.438-2.874-1.392-5 .735-1.246 1.247-3.503 3.158-5.016 4.246L677 341v-2z"/><path fill="#4963aa" d="m946 451 .105 3.25.106 3.25L946 463l-5 19-5 10 2.481-9.126c1.365-5.019 2.265-9.519 1.519-10.874l1-6 .107-.75c.217-1.523-2.347-4.249-3.951-4.202-.911.027-5.594 2.502-19.156 10.952l-10.75 5.661C884.595 489.59 870.332 497.66 866 501l-1.578.75c-1.575.749-3.388 6.215-10.033 30.25-1.901 6.875-3.893 13.85-4.427 15.5C846.428 558.418 844 569.208 844 574l-.882-2.75-.881-2.75-.119 3.123c-.138 3.643-3.777 12.377-5.157 12.377-.52 0-.289-1.688.513-3.75s2.408-7.125 3.569-11.25c5.511-19.588 8.086-28.531 11.8-41 5.816-19.522 6.687-25.599 4.157-29l37.868-20.398C915.695 467.383 935.72 456.582 946 451M751 364l1-3 .561 1.937c.309 1.065.984 2.191 2.439 3.063l-.555 4.495c-.458 3.712-.981 4.601-3 5.108-1.516.38-2.445 1.333-2.445 4.397l-.602-1.648c-.542-1.485-.986-1.435-8.398 2.648l-3.621 1.542c-3.528 1.502-3.605 1.65-2.986 5.75.44 2.916.324 3.824-1.393 1.708l-.633-2.207c-.62-2.16-.823-2.107-18.367 7.207l-7 5-2 1-16 8-4.563 2.25c-3.761 1.855-4.487 2.65-4.134 4.524.568 3.012-.917 3.815-2.295 1.241-.873-1.631-1.476-1.835-3.004-1.017-1.394.746-3.007.585-5.958-.596-2.225-.89-4.042-1.908-4.036-2.261s13.843-8.039 30.75-17.081c48.811-26.104 55.709-30.037 56.24-32.06"/><path fill="#147e78" d="M617 314c-.944-59.066-.793-67.193.066-66.334 1.287 1.287 2.228 8.198 4.465 32.805 1.717 18.885 2.534 21.222 9.025 25.826 10.503 7.449 18.501 12.252 24.561 14.751 3.658 1.509 9.06 4.366 12.004 6.348s6.146 3.604 7.116 3.604H676l1 8-7.111-2.478C653.471 330.801 630.764 321.132 617 314"/><path fill="#322852" d="m784 582 .75-.062c1.438-.118 5.102 8.599 5.749 13.678.359 2.814.168 7.652-1.499 16.384l-2.032 1.579c-6.428 4.996-14.103 3.597-21.577-3.932-6.702-6.751-9.603-14.253-9.286-24.013l.226-6.967-23.389-7.333C720.078 567.3 708.754 564 706 564l-2.42-.559c-1.331-.307-3.355-.082-6.58 1.559l1.122-1.5c1.929-2.578 10.481-1.829 21.932 1.922 5.745 1.882 15.846 5.057 22.446 7.055s13.35 4.328 15 5.177 5.138 1.949 12.5 3.346l-1 1-1.63.783c-2.356 1.132-1.547 13.259 1.079 16.16 2.34 2.585 6.704 2.651 8.981.135.957-1.057 2.826-5.332 6.57-17.078"/><path fill="#799caf" d="M732 526h2c1.771 12.013 2.671 16.287 3.143 17.25L738 545c.46 5.88 1.014 6.512 3.75 7.192L745 553c3.975 3.905 5.476 4.824 5.9 4.562s.217-3.983-.461-8.269c-1.926-12.185-2.149-17.835-.689-17.543l1.25.25c-.617 1.162-.167 4.763.602 8.75L753 548c.971 7.604 1.334 8.007 5.006 8.962L762 558c4.446 7.167 5.265 5.539 3.97-7.887-.92-9.536-.894-12.042.13-12.675.791-.489 1.585-.151 2.088.887L769 540l.155 20.965 3.922 1.017L777 563l5 3.463v-10.338c0-8.793.224-10.248 1.5-9.732l1.5.607v19.008l4.5.996 4.5.996c1.628 3.143 2.528 3.792 3.05 3.469s.987-5.398 1.033-11.278c.074-9.503.251-10.524 1.584-9.191.825.825 1.462 1.838 1.416 2.25L801 554l-.5 16.488 4.25 1.256L809 573c3.965 3.479 4.003 3.374 5.122-6.808.884-8.046 1.435-10.186 2.506-9.75L818 557l-2.21 18.703 4.105 1.149L824 578c.389 1.947-.688 2.637-2.184 2.81-2.402.277-46.516-12.974-75.316-22.624-10.677-3.578-11.002-3.774-11.089-6.686-.049-1.65-.837-8.062-1.75-14.25z"/><path fill="#f53f52" d="m866 501 2.434 1.134c2.128.991 3.039.695 7.25-2.353 2.649-1.918 7.855-5.167 11.57-7.222s6.471-4.195 6.125-4.755c-.39-.631.132-.777 1.37-.384 3.65 1.159 15.5-6.19 23.251-14.42l2.11-1.077c1.16-.592 3.81-1.233 5.888-1.423s5.742-1.386 8.141-2.656 4.699-2.205 5.861-1.844l-5.75 3.391c-3.162 1.865-12.5 7.102-20.75 11.637-33.296 18.303-41.595 23.189-42.939 25.282-.773 1.204-3.683 10.29-6.466 20.19s-6.194 21.825-7.58 26.5-3.201 10.975-4.033 14-1.955 6.062-3.482 8l-1.5-.469c-2.071-.647-1.906-5.249.498-13.867C859.06 521.005 864.462 503.101 866 501m49.5-25c-.275 0-.5.225-.5.5s.225.5.5.5.5-.225.5-.5-.225-.5-.5-.5"/><path fill="#342a51" d="m822 687 3-8c2.809 1.929 6 9.769 6 14.739 0 3.704-2.025 10.834-3.587 12.633L826 708c-7.712 3.987-15.539 1.739-22.845-6.561-5.698-6.473-8.435-14.18-7.971-22.439.348-6.194.576-6.705 4.841-10.851 2.461-2.393 4.813-4.305 5.225-4.25l.75.101h1v4.606c0 3.454-.625 5.348-2.5 7.576-8.493 10.094 7.384 31.934 16.551 22.767 1.704-1.704 1.957-2.887.949-11.949"/><path fill="#584982" d="M844 574c0-4.792 2.428-15.582 5.962-26.5.534-1.65 2.526-8.625 4.427-15.5 6.645-24.035 8.458-29.501 10.033-30.25L866 501c-1.538 2.101-6.94 20.005-18.002 59.664-2.404 8.618-2.569 13.22-.498 13.867l1.5.469c4.143-1.039 9.655-3.788 14.923-6.78s18.127-10.173 28.577-15.959 20.843-11.565 23.096-12.842c5.158-2.925 3.96.178 17.802-46.146 2.995-10.025 5.706-18.912 6.024-19.75L940 472c.746 1.355-.154 5.855-1.519 10.874L936 492l-3.623 14.25c-6.65 26.153-7.371 28.226-11.377 32.75-7.762 4.263-10.012 5.838-10.008 6.25l.008.75-60 32c-2.669 0-4.244-.9-5.222-2z"/><path fill="#fc8f29" d="m814 474 2.617-1.417c1.439-.779 3.014-1.904 4.383-3.583l5-1h8l.75-.035c.412-.019 2.737.861 5.167 1.956s4.842 1.728 5.362 1.407c.519-.321 1.344-.077 2.721 1.672v1.5c0 .825.675 1.5 3 1.5l2 1 3 1 4.5 3.596c2.475 1.978 4.5 4.003 4.5 5.404l-4.043 2.599-4.043 2.598-16.207-6.759c-8.914-3.718-18.346-7.514-20.96-8.435S814.77 475.029 814 474m30.985 6.513c-1.092.988-1.985 1.977-1.985 2.197 0 .884 11.218 5.29 13.469 5.29 6.08 0 3.059-4.4-5.234-7.625-4.028-1.566-4.375-1.559-6.25.138"/><path fill="#99bcc4" d="m808 660 7.25 2.649c5.872 2.145 8.818 2.62 23.75 2.351l-1 10-.56-1.927c-.887-3.054-3.174-4.346-5.44-3.073l.515-1.26c.379-.927-1.104-1.281-5.608-1.342-5.476-.074-5.873.049-3.764 1.174 1.297.692 2.695 2.421 3.857 6.428l-2 4-3 8-1.14 1.972c-.627 1.085-2.001 2.75-3.052 3.701-1.814 1.642-2.122 1.63-6.096-.222l-4.186-1.951L807 664h-1l1.521-1.061c.837-.584 1.287-1.484.479-2.939m17.85 15.5c-.082-.275-.15-.05-.15.5s.068.775.15.5l.15-.5z"/><path fill="#2c3573" d="m832 587 4 1 27.75 12.633c15.263 6.948 28.537 13.318 29.5 14.155 2.951 2.567 1.998 4.185-4.25 7.212-4.263-2.377-5.838-3.051-6.25-3.033L882 619c-1.162-1.42-14.213-7.72-29.75-14.916L824 591l-.007-.75c-.004-.412 1.797-1.312 8.007-3.25"/><path fill="#2a3070" d="M770 581c-7.362-1.397-10.85-2.497-12.5-3.346s-8.4-3.179-15-5.177-16.701-5.173-22.446-7.055c-11.451-3.751-20.003-4.5-21.932-1.922L697 565l-8.236 10.75-8.236 10.75.205 8.5c.232 9.624-.715 11.869-3.079 7.298-2.309-4.465-3.003-10.296-1.766-14.84 1.309-4.812 18.736-28.479 22.177-30.117 4.916-2.341 6.209-2.198 20.19 2.234a5181 5181 0 0 0 33.245 10.367c23.193 7.142 24.768 7.747 24.254 9.314-.225.684-1.611 1.356-5.754 1.744"/><path fill="#322852" d="m705 660-2.75 1.494c-3.508 1.906-10.531 1.93-14.17.048-4.655-2.407-11.789-11.16-13.712-16.822-2.238-6.591-2.222-15.185.035-19.54.947-1.826 3.268-4.189 8.597-7.18l1 10h-.666c-.366 0-1.545 1.912-2.62 4.25-1.668 3.628-1.79 4.85-.836 8.349 2.516 9.224 9.442 15.231 15.232 13.213 4.168-1.453 4.89-3.493 4.89-13.812l3-8 1.438.445c4.37 1.352 4.74 19.466.562 27.555"/><path fill="#342a51" d="M902 665c-4.573 2.325-7.291 3-8.99 3-6.52 0-14.786-6.45-18.902-14.75L872 649l8-4 .652 1.75c1.961 5.263 7.632 6.966 11.226 3.372 1.033-1.033 2.833-4.858 6.122-15.122 2.257-.919 3.388.739 4.877 4.631 3.262 8.524 3.669 15.903 1.164 21.119z"/><path fill="#fff" d="M740 381c7.412-4.083 7.856-4.133 8.398-2.648L749 380l4.547 18.75c2.501 10.312 6.101 24.487 11.453 44.25v12l-3-1c.754-1.163-1.425-10.268-4.355-20.984l-5.327-19.484-3.659-.766L745 412l1.041-.834c1.152-.924.323-5.183-3.66-18.812-1.31-4.48-2.381-8.868-2.381-11.354"/><path fill="#9dcddd" d="M438 537c-.307 7.27 1.173 12.551 4.935 22.5 7.468 19.747 10.694 26.185 15.961 31.846 7.554 8.119 19.765 12.201 24.39 8.154L485 598c-4.336 5.317-6.781 7.157-8.229 7.521-7.31 1.835-21.068-6.191-27.149-15.838-4.786-7.593-15.676-35.238-16.346-41.498-.482-4.504-.242-5.687 1.577-7.75L437 538zM600 615c4.069 2.105 28.421 4.992 42.162 4.997 9.909.004 21.931-2.321 26.953-5.213 2.181-1.256 3.948-2.622 3.926-3.034L673 611c4.363 5.539 1.406 9.585-9.5 12.998-3.85 1.205-10.825 2.408-15.5 2.674-9.452.538-40.966-1.994-43.673-3.509-.953-.533-2.315-2.588-3.029-4.566z"/><path fill="#99bcc4" d="m703 632-3 8c-3.846 6.58-5.477 8-9.191 8-5.13 0-6.809-2.96-6.809-12v-8l-1-10 1.5-1.05c.825-.577 1.5-1.702 1.5-3.95l9 4v1.391c0 .765 1.856 2.134 4.125 3.042 3.255 1.302 4.125 2.166 4.125 4.091 0 1.342.394 2.223 1.75 1.476z"/><path fill="#799caf" d="M781 508c3.1-.332 4-.107 4 .286V509l-1 16c.305 9.938.926 11.306 5.789 12.75L794 539c3.325 1.583 4.562 1.771 4.895 1.438s.766-5.988.962-12.569c.25-8.395.698-11.852 1.5-11.588.629.207 1.255 1.353 1.393 2.547L803 521l-.5 21.445 5.25 1.778L813 546c2.546 4.364 3.667 2.201 5.317-10.25 1.128-8.513 2.09-12.554 3.153-13.245.841-.547 1.53-.66 1.53-.25V523c-1.378 1.938-2.053 5.763-2.389 9.75L820 540c-.967 7.574-.745 8.081 1.905 9.451 1.606.83 4.985 1.968 7.508 2.529L834 553c.881 2.168.695 3.071.154 3.405s-4.735-.789-9.319-2.495-13.96-5.073-20.835-7.482-14.68-5.218-17.344-6.244l-4.844-1.865-.406-15.16z"/><path fill="#17726d" d="M552 206c-.424.682-5.261-1.028-11.023-3.36-14.68-5.94-14.977-6.137-14.977-9.953 0-5.372 2.282-7.398 11.599-10.303 6.158-1.92 8.358-3.031 7.956-4.019L545 177l7 6z"/><path fill="#147e78" d="M515 192c1.55 0 2 .918 2 2.04 0 2.96 3.607 9.569 6.237 11.428 1.245.88 4.738 2.317 7.763 3.193 7.533 2.182 12.767 4.94 17.497 9.221l3.997 3.618-9.997-3.298c-11.989-3.955-15.109-3.79-22.926 1.21-3.126 2-6.109 3.4-6.628 3.112L512 222l-.25-9.75c-.184-7.163.214-11.143 3.25-20.25"/><path fill="#f16b23" d="M827 494c16.41 6.425 21.399 8.876 21.674 9.592s-.664 5.376-2.087 10.355L844 523l-2.658-1.035c-1.462-.57-4.171-2.363-6.019-3.986s-4.589-3.243-6.091-3.602c-4.668-1.115-5.342-2.214-4.763-7.775.292-2.806.981-6.79 2.531-12.602"/><path fill="#20519d" d="m752 361-1 3h-3.427c-2.124 0-3.644-.57-4.573-3-1.945-8.856-3.3-10.686-11.043-18.25L723 334v-1l2-7v-1l10.75 9.668c5.913 5.318 11.477 11.055 12.367 12.75S750.244 352.862 752 361"/><path fill="#ef3b50" d="m716 473-.015.75c-.008.413-2.836-.398-6.284-1.801l-6.269-2.551-2.381-10.449c-1.31-5.747-2.308-12.137-2.051-17.949l1.25.58c.688.319 3.599 1.556 6.469 2.75 5.109 2.124 5.241 2.286 6.318 7.67.605 3.025 1.52 7.127 2.032 9.116S716 466.592 716 473"/><path fill="#fff" d="M667 429c9.56 3.386 12.935 5.187 13.668 6.185L682 437l3 10 4 17-5.25-1.618c-2.888-.89-5.763-2.127-6.389-2.75S674.148 451.862 667 429M689 500l-1-4-8-28c9.3 3.76 12 5.11 12 5.426V474l4.374 14.54c2.406 7.997 4.655 14.748 5.626 15.46l-2.309.548c-3.262.774-7.764-1.141-10.691-4.548M794 421c-1.163-1.163-1.991-2.4-2.592-3.5s-2.344-2.614-3.874-3.364-2.95-2.213-3.157-3.25L784 409l.059-.75c.033-.413-.417-1.538-2.059-4.25l.09-.75c.049-.413-.426-4.287-1.056-8.611s-.917-8.089-.639-8.367 3.39.843 6.915 2.492l6.408 2.999 1.651 14.619C796.833 419.354 796.849 421 794 421"/><path fill="#646186" d="M832 670c2.266-1.273 4.553.019 5.44 3.073L838 675l1.5 5.71c1.979 7.534 1.864 11.893-.451 16.992-1.479 3.257-3.16 4.887-13.049 10.298l1.413-1.628c1.562-1.799 3.587-8.929 3.587-12.633 0-4.97-3.191-12.81-6-14.739l2-4z"/><path fill="#57547c" d="M908 625c6.111 12.593 6.5 14.381 6.5 21.624 0 9.56-1.477 12.416-8.339 16.126L902 665l2.041-4.25c2.505-5.216 2.098-12.595-1.164-21.119-1.489-3.892-2.62-5.55-4.877-4.631l2.028-2.25c1.116-1.237 2.493-3.971 3.059-6.074.832-3.087 1.308-3.617 3.913-1.676z"/><path fill="#fff" d="m872 428 .75-.073c.412-.04 2.661.678 4.996 1.597 3.468 1.364 4.626 2.524 6.313 6.324 1.782 4.012 1.972 5.789 1.384 12.917-.375 4.546-1.078 8.483-2.443 9.235l-2-2-5.003-2.519-5.004-2.518z"/><path fill="#20519d" d="M659 445c-4.829-16.663-6.454-22.4-6.727-23.5s-1.094-3.35-1.826-5c-1.823-4.109-5.447-15.529-5.447-17.165 0-.734.691-1.335 1.536-1.335 1.66 0 4.49 5.842 6.981 14.411l1.541 5.301 10.981 4.303c6.039 2.367 11.459 4.88 12.044 5.585s1.593 1.091 2.24.858 2.299.442 3.67 1.498c4.934 3.8-.426 3.352-10.561-.883-10.73-4.483-14.438-5.081-14.421-2.323.006.962.906 4.788 2 8.5L663 442z"/><path fill="#fff" d="M780 413h-1l-4.042-2.217c-5.633-3.09-6.508-4.386-7.958-11.783l-5-22 6.525 3.25 6.525 3.25z"/><path fill="#147e78" d="M554.61 267c1.895 4.125 6.696 14.371 10.668 22.769l7.222 15.269 10 5.678c5.5 3.123 12.783 7.503 16.185 9.732s8.296 5.307 10.876 6.842 4.481 3.002 4.224 3.259-10.88-4.703-23.606-11.024c-21.415-10.636-23.248-11.756-24.615-15.027-3.064-7.333-14.561-41.73-14.482-43.329.045-.918 1.633 1.706 3.528 5.831"/><path fill="#ee6410" d="M820 495c-1.435 7.362-2.11 11.188-2.426 13.25L817 512l-6.25-1.815-6.25-1.816-.29-8.141c-.159-4.478.178-9.511 1.79-14.228 3.208 0 14.187 4.879 14.066 6.25L820 493l-.75-.006c-.412-.003-.906.724-1.096 1.618-.203.952.107 1.369 1.846.388"/><path fill="#2a958e" d="M617.08 217.19c1.51.503 3.646 6.882 10.464 31.247 4.915 17.563 5.157 19.042 2.988 18.21-.81-.311-2.857-.081-4.551.509s-3.283.869-3.533.619c-1.188-1.188-3.252-22.304-2.293-23.459 1.511-1.821.038-3.72-1.74-2.244-1.196.992-1.411-.123-1.411-7.312 0-4.666-.294-10.631-.654-13.257-.524-3.822-.379-4.683.73-4.313"/><path fill="#8bc344" d="M823 523c13.297 4.841 17.387 6.844 17.668 7.576s-.205 3.601-1.079 6.377L838 542l-2.012.62c-1.107.341-5.156-.109-15.988-2.62l.611-7.25c.336-3.987 1.011-7.812 2.389-9.75"/><path fill="#5d9a3c" d="M865 487c0-1.401-2.025-3.426-4.5-5.404L856 478l.964-4.25c.53-2.337 1.721-5.321 2.647-6.63l1.684-2.38L865 469v7c0 4 .429 7 1 7 .55 0 1.011-1.688 1.024-3.75s.464-5.663 1.976-12.25l1.074.605c.591.333 2.171-.427 3.513-1.687 4.266-4.008 6.188 1.235 3.237 8.832-1.192 3.07-1.139 3.25 3.176 3.25l.031.75c.017.413-3.357 2.438-15.031 8.25"/><path fill="#f53f52" d="m662 359-1.588-3.453c-.873-1.899-1.324-3.924-.412-5.547l17-9 2.75-1.979c1.513-1.088 3.77-2.999 5.016-4.246 2.126-2.127 2.436-2.173 5-.735 1.504.843 3.522 2.979 6.234 7.96l-.916-1.174c-.671-.86-2.742-.183-7.75 2.534-3.759 2.039-10.997 5.818-16.084 8.399S662 357.025 662 359"/><path fill="#e9ccf8" d="M767 469c6.587 2.57 9.062 3.751 9.75 4.281.876.675 1.25 4.52 1.25 12.841V498l-1.063.598c-.585.329-1.822-.034-2.75-.807S771.263 495.85 767 494z"/><path fill="#f4a483" d="M602 584c16.788.246 22.925-.192 24.75-.842L630 582l1 3c-7.755 3.193-8.555 4.026-8.812 6.5-.427 4.1-2.648 5.5-8.731 5.5-3.999 0-5.87-.563-8.309-2.5L602 592z"/><path fill="#f53f52" d="M737 479v3l-6.473-2.258-6.473-2.257-1.928-9.993c-1.06-5.496-2.182-11.437-2.494-13.203s-.131-3.454 1.368-4.289c13.917 6.286 12.705 4.53 15.024 21.75z"/><path fill="#e9ccf8" d="m784 476 14.5 5.834-.25 6.583L798 495l-2.067 1.071c-1.137.589-4.286 1.489-11.933 2.929z"/><path fill="#9dcddd" d="M732 390c1.717 2.116 1.833 1.208 1.393-1.708-.619-4.1-.542-4.248 2.986-5.75L740 381c0 2.486 1.071 6.874 2.381 11.354 3.983 13.629 4.812 17.888 3.66 18.812L745 412l-6 3z"/><path fill="#2a3070" d="m845.87 408.6 4.373 1.905h-4.373c-4.256 0-11.847-2.053-14.873-4.022-3.261-2.122-12.351-6.478-13.518-6.478-.68 0-1.797-.675-2.482-1.5s-2.105-1.5-3.156-1.5-4.131-1.125-6.844-2.5-5.581-2.5-6.371-2.5-4.156-1.537-7.48-3.416-6.926-3.696-8.004-4.038c-2.195-.697-3.534-3.188-2.167-4.033.49-.303 3.857.808 7.482 2.468s6.782 3.019 7.016 3.019 6.185 2.638 13.225 5.862c16.638 7.62 28.101 12.781 37.172 16.733"/><path fill="#ac173b" d="M662 359c0-1.975 4.163-4.66 9.25-7.241s12.325-6.36 16.084-8.399c5.008-2.717 7.079-3.394 7.75-2.534L696 342v2.48c0 1.906-1.156 3.178-10 8.52l-22 11z"/><path fill="#7da0d5" d="m690 518-1.1-3.567c-.605-1.962-.837-3.83-.517-4.15s1.94-.065 6.617 1.717l-.999.25c-1.046.262 5.424 21.545 7.05 23.19.579.586 2.253.303 7.949-2.44l-2.717 2.983c-2.064 2.266-2.424 3.228-.283 5.017l6 2 1.619.596c.89.328 1.853 1.49 2.138 2.581.364 1.393 1.073 1.811 4.243.823v3l-7.15-2.045c-3.932-1.125-7.982-2.475-10.85-3.955l-2.495-2.267c-1.648-1.498-3.684-5.911-9.505-23.733"/><path fill="#57547c" d="M705 660c4.178-8.089 3.808-26.203-.562-27.555L703 632l2-5 5-3 1.917 1.417c1.054.779 2.179 1.229 3.083.583 4.703 20.284 3.526 26.687-5.839 31.75z"/><path fill="#5d9a3c" d="M803 521c4.564-3.487 5.915-4.162 5.945-3.75l.055.75c-.095 8.366 2.777 17.794 5.038 16.535L815 534l-2 12-5.25-1.777-5.25-1.778z"/><path fill="#2c3573" d="M818 557c4.423 0 13.789 3.008 14.411 4.628.272.709-.496 4.346-1.708 8.081-1.645 5.07-2.773 6.981-4.453 7.541L824 578l-4.105-1.148-4.105-1.149z"/><path fill="#fff" d="m800 395 5.602 2.138 5.603 2.138L810 414v10l-.75.145c-.412.08-2.151-.524-3.863-1.342l-3.114-1.488z"/><path fill="#f16b23" d="M765 502h1l4.109 4.25c2.26 2.337 4.734 5.938 6.891 11.75v3c-.098 4.263-.548 6.513-1.063 7.75L775 531l-1.998.616c-1.102.34-3.027-.058-4.292-.887-2.066-1.354-2.426-2.809-3.627-14.657-.733-7.235-1.052-13.362-.083-14.072"/><path fill="#49778f" d="M784 582c-3.744 11.746-5.613 16.021-6.57 17.078-2.277 2.516-6.641 2.45-8.981-.135-2.626-2.901-3.435-15.028-1.079-16.16L769 582c3.332 2.777 5.568 2.503 8.158-1 2.552-3.451 5.834-3.961 6.436-1z"/><path fill="#cadbd9" d="m662 427 5 2c7.148 22.862 9.735 30.009 10.361 30.632s3.501 1.86 6.389 2.75L689 464l6 3-1 2-21.852-8.249-5.133-16.125c-2.823-8.869-5.106-16.463-5.074-16.876z"/><path fill="#fff" d="M709 533c-5.696 2.743-7.37 3.026-7.949 2.44-1.626-1.645-8.096-22.928-7.05-23.19L695 512l10.777 3.295 2.166 7.452c1.191 4.099 1.916 8.083 1.611 8.853zM856 478l-3-1v-26l5.75 2.308 5.75 2.308L865 469l-3.705-4.26-1.684 2.38c-.926 1.309-2.117 4.293-2.647 6.63z"/><path fill="#ef3b50" d="m742 461 .772-.418c.425-.23 3.237.782 6.25 2.25 4.497 2.19 5.612 3.25 6.978 9.168v5l-11 6-1-4-1-3-1-11z"/><path fill="#f16b23" d="m759 506 1 21-4.25-.988c-2.337-.544-4.848-1.38-5.579-1.858-.753-.493-1.729-4.182-3.171-16.154h2.05c1.127 0 3.39-.694 5.029-1.541s3.417-1.297 4.921-.459"/><path fill="#799caf" d="M775 531c2.59 3.094 3.011 4.322 2.607 4.726-.729.729-10.967-2.461-23.797-7.413l-6.691-2.582-1.059-8.366L745 509l2-1c1.442 11.972 2.418 15.661 3.171 16.154.731.478 3.242 1.314 5.579 1.858L760 527c2.698 3.305 2.926 3.324 3.469 1.924.336-.867.147-7.167-.42-14-.887-10.685-.822-12.563.46-13.419.82-.547 1.491-.66 1.491-.25V502c-.969.71-.65 6.837.083 14.072 1.201 11.848 1.561 13.303 3.627 14.657 1.265.829 3.19 1.227 4.292.887z"/><path fill="#9dcddd" d="m706 400 7-5c-.714 1.304.443 6.366 2.112 12.091s3.001 12.547 2.961 15.159L718 427l-3 2c-1.435-2.712-3.46-9.237-5.426-16.25z"/><path fill="#f53f52" d="M707 479c7.362 2.469 10.126 3.785 10.89 4.518s1.777 3.841 2.25 6.907L721 496l-10 5-1.371-4.75c-2.978-10.316-3.891-16.306-2.629-17.25"/><path fill="#2a3070" d="M769 540c1.992-1.372 3.846-1.157 5.812-.333l3.312 1.389-.562 10.972L777 563l-3.923-1.018-3.922-1.017zM801 554c1.479-4.049 1.614-4.06 5.5-2.441 2.2.916 4.305 2.152 4.678 2.746.696 1.109-.934 18.695-1.733 18.695H809l-4.25-1.256-4.25-1.256z"/><path fill="#2c3573" d="m702 546 10 3 .25 2.038c.138 1.121.925 2.509 1.75 3.086 1.147.803.912.892-1 .378-1.375-.369-3.518-.828-4.762-1.02s-4.758-1.529-7.808-2.972c-6.684-3.162-11.43-9.657-11.43-15.641 0-2.057-.532-5.006-1.182-6.554s-1.297-3.49-1.437-4.315-.577-2.573-.97-3.884c-.54-1.802-.373-2.27.687-1.918.771.256 3.202 5.688 5.402 12.071C695.868 542.942 697.909 546 702 546"/><path fill="#2a3070" d="M785 547c0-3.225 1.204-3.33 7-.61 2.453 1.151 2.495 1.363 2.25 11.391L794 568l-4.5-.996-4.5-.996z"/><path fill="#94c1e5" d="M720 550v-3c-5.491-22.597-6.038-26.362-5.222-27.178s2.463-.608 6.189.783c2.792 1.042 5.067 2.233 5.055 2.645L726 524l-1 1v3l-6.234 4.321 1.367 6.589c1.247 6.009 1.653 6.7 4.617 7.84L728 548c2.884 1.42 4.038 2.658 4.425 3.666.68 1.771.483 1.773-5.861.083zm-.5-28c-.825 0-1.5.675-1.5 1.5s.675 1.5 1.5 1.5 1.5-.675 1.5-1.5-.675-1.5-1.5-1.5"/><path fill="#f4a483" d="M459 534c3.178 5.347 5.653 7.822 7.55 8.95L470 545l-9.5 4.198-3.82-3.349c-4.852-4.254-6.453-10.125-4.188-15.362L454 527h2z"/><path fill="#2a3070" d="M728 525c1.845 5.481 1.864 6.989 1.15 8.132-.568.909-.729 1.956-.357 2.328s1.176 3.181 1.787 6.242c1.019 5.106.959 5.596-.734 5.932L728 548l-3.25-1.25c-2.964-1.14-3.37-1.831-4.617-7.84l-1.367-6.589L725 528l2 2 1-2v-3"/><path fill="#2c3573" d="M685 503v1l1 4-.566 2.5c-.352 1.555-1.261 2.5-2.406 2.5-2.195 0-4.895-6.873-5.694-14.5-.288-2.75-1.166-5.721-1.951-6.603-1.003-1.127-1.167-2.306-.551-3.971.696-1.883.427-2.721-1.314-4.09-2.831-2.227-3.154-8.368-.518-9.836 2.225 2.712 3.773 6.966 4.874 11.202s3.155 9.973 4.564 12.75z"/><path fill="#5d9a3c" d="m838 542-4 11-4.587-1.02c-2.523-.561-5.902-1.699-7.508-2.529-2.65-1.37-2.872-1.877-1.905-9.451 10.832 2.511 14.881 2.961 15.988 2.62z"/><path fill="#fff" d="M586 206c.181 19.092-.067 21-1.264 21-.804 0-5.124-2.475-9.599-5.5L567 216c11.415 0 12.498-.344 14.985-2.831 1.557-1.557 3.098-3.807 3.423-5z"/><path fill="#491c78" d="m791 429-1.462 1.091c-.903.673-3.772.864-13.538-.091l-1-11 2.25 1.556c1.506 1.042 3.572 1.392 6.25 1.06 2.2-.273 5.013-.523 8.5-.616v6z"/><path fill="#cadbd9" d="M688 496c-1.568-2.017-2.047-1.06-2.433 1.8L685 502c-2.59-8.913-3.94-13.638-4.671-16.25L679 481l.75.006c.413.003.895-.672 1.073-1.5.18-.84-.372-1.506-2.823-1.506l-3.5-11.119 2.75.559 2.75.56z"/><path fill="#8ea1c0" d="M699 441c-.257 5.812.741 12.202 2.051 17.949l2.381 10.449 6.269 2.551c3.448 1.403 6.276 2.214 6.284 1.801L716 473c2.065 0 2.794 3.391.971 4.518-.566.35-4.269-.635-8.23-2.189l-7.201-2.825-3.35-15.002c-1.842-8.251-3.314-15.339-3.27-15.752l.08-.75z"/><path fill="#ee6410" d="M734 526c9.33 2.551 9.542 2.775 10.677 7.549.647 2.723.985 6.863.75 9.201L745 547l-7-2-.857-1.75c-.472-.963-1.372-5.237-3.143-17.25"/><path fill="#fff" d="m721 496 4 18-5.403-1.46c-4.084-1.104-5.672-2.081-7.597-6.54l-1-5z"/><path fill="#8642b8" d="M785 509c8.552 2.586 11.524 3.926 12.122 4.647.784.945.78 2.154-.017 4.332L796 521l-5.25 1.145c-2.888.63-5.587 1.53-6.75 2.855z"/><path fill="#f68b8f" d="M866 501c4.332-3.34 18.595-11.41 41.25-23.339L918 472v1c-7.751 8.23-19.601 15.579-23.251 14.42-1.238-.393-1.76-.247-1.37.384.346.56-2.41 2.7-6.125 4.755s-8.921 5.304-11.57 7.222c-4.211 3.048-5.122 3.344-7.25 2.353z"/><path fill="#2a3070" d="M796 521c-.174 13.562-.624 17.612-1.112 17.75L794 539l-4.211-1.25c-4.863-1.444-5.484-2.812-5.789-12.75 1.163-1.325 3.862-2.225 6.75-2.855z"/><path fill="#799caf" d="M725 515c2.362 1.771 3.249 2.084 3.495 1.838s-.654-6.937-2-14.869c-1.475-8.692-2.06-14.53-1.471-14.695L726 487c.56 3.875 1.01 5 1.361 5H728c-.731 1.331-.281 5.381.528 9.859L730 510c1.622 6.851 5.058 10.361 9.926 10.14L743 520c.881 2.168.69 3.073.145 3.41-.841.52-8.352-1.914-16.895-5.473L724 517z"/><path fill="#a5bec0" d="M821 514c2.956-17.098 3.952-20.417 4.772-20.25L827 494c-1.55 5.812-2.239 9.796-2.531 12.602-.579 5.561.095 6.66 4.763 7.775 1.502.359 4.243 1.979 6.091 3.602s4.557 3.416 6.019 3.986L844 523c-1.413 2.688-3.329 2.238-12.271-1.235-8.12-3.153-10.729-4.604-10.729-5.966z"/><path fill="#f16b23" d="m741 504 2 16-3.074.14c-4.868.221-8.304-3.289-9.926-10.14l4-6 2.428-.872 2.428-.872z"/><path fill="#961635" d="M691 445c3.844 11.913 4.969 16.863 4.98 18.686L696 467h-1l-6-3-4-17v-.6c0-.33 1.35-.779 6-1.4"/><path fill="#fff" d="M880 478c-4.315 0-4.368-.18-3.176-3.25 2.951-7.597 1.029-12.84-3.237-8.832-1.342 1.26-2.922 2.02-3.513 1.687L869 467v-6l1.263-1.095c.933-.809 2.828-.467 7.25 1.307 4.532 1.818 6.048 2.935 6.487 6.788h-.724c-.398 0-.891 1.753-1.095 3.895s-.778 4.392-2.181 6.105"/><path fill="#49778f" d="M880 645c2.089-4.061 15.033-12.679 16.735-11.142L898 635c-3.289 10.264-5.089 14.089-6.122 15.122-3.594 3.594-9.265 1.891-11.226-3.372z"/><path fill="#9451c1" d="M792 421c-3.487.093-6.3.343-8.5.616-2.678.332-4.744-.018-6.25-1.06L775 419v-2l2-3 2-1h1l1.163-.304c.639-.167 1.314-1.068 1.837-3.696h1l.377 1.886c.207 1.037 1.627 2.5 3.157 3.25s3.273 2.264 3.874 3.364 1.429 2.337 2.592 3.5z"/><path fill="#6a94aa" d="M700 640c0 10.319-.722 12.359-4.89 13.812-5.79 2.018-12.716-3.989-15.232-13.213-.954-3.499-.832-4.721.836-8.349 1.075-2.338 2.254-4.25 2.62-4.25H684v8c0 9.04 1.679 12 6.809 12 3.714 0 5.345-1.42 9.191-8"/><path fill="#dc530f" d="m751 532 10.155 3.257-.078 4.871L761 545l-8 3-1.398-7.25c-.769-3.987-1.219-7.588-.602-8.75"/><path fill="#799caf" d="M801 499c1.021-13.385 1.356-14.362 3.033-14.426 1.066-.041 1.945.263 1.953.676l.014.75c-1.612 4.717-1.949 9.75-1.79 14.228l.29 8.141 6.25 1.816L817 512c.936 2.313.583 3.223-.183 3.517-.765.293-4.524-.749-8.354-2.316l-6.963-2.849-.25-5.676z"/><path fill="#961635" d="M692 474c4.604-1.872 7.402 1.988 10.509 14.5 1.502 6.05 2.677 12.013 2.611 13.25L705 504h-3c-.971-.712-3.22-7.463-5.626-15.46z"/><path fill="#89afd2" d="M781 476h3v23c1.163 1.461 4.087 2.811 7.25 3.943L797 505c0 3.238-.767 3.157-7.75.893l-7.75-2.513-.25-13.69z"/><path fill="#3a8728" d="M754 497c4.17 1.613 4.965 2.609 4.985 6.25L759 506c-1.504-.838-3.282-.388-4.921.459S750.177 508 749.05 508H747l-2 1v-4l.353-3.553c.487-4.9 1.939-6.164 5.125-4.459 1.385.741 2.745 1.048 3.522.012"/><path fill="#799caf" d="M731 488c5.257 1.577 7.22 2.589 7.755 3.267s1.259 3.82 1.609 6.983L741 504l-2.144-1.744-2.428.872L734 504l-4-12z"/><path fill="#a080c1" d="m760 467 7 2v25l-1.5-.469c-1.197-.374-1.5-2.412-1.5-10.093 0-8.823-.167-9.659-4-10.438z"/><path fill="#789dc4" d="m800 395 2.273 26.315 3.114 1.488c1.712.818 3.451 1.422 3.863 1.342L810 424l4 3c-2.373 2.025-3.966 1.704-8.201-.235l-5.517-2.525-1.641-14.62L797 395z"/><path fill="#799caf" d="M717 450h4c-1.499.835-1.68 2.523-1.368 4.289s1.434 7.707 2.494 13.203l1.928 9.993 6.473 2.257L737 482c1.995 1.663 2.065 2.335 1.406 2.994-1.051 1.051-13.917-3.272-16.013-5.38-.609-.613-2.072-7.527-3.25-15.364z"/><path fill="#2a3070" d="M880.35 424.03c6.24 2.932 8.541 4.473 7.793 5.221s-2.918.398-7.353-1.184c-3.461-1.235-7.418-2.544-8.793-2.908-2.21-.586-7.578-3.441-14.857-7.903-1.619-.993-2.034-1.768-1.325-2.477 1.103-1.103 8.194 1.572 24.535 9.251"/><path fill="#5d96d4" d="m705 564-15 21-8 7 1.467-3.466c1.54-3.636 11.025-17.081 15.368-21.784 1.397-1.513 3.355-2.75 6.165-2.75"/><path fill="#2c3573" d="m663 442 8 22-2.614-.25c-2.238-.214-2.902-1.113-4.616-6.25-1.101-3.3-2.175-6.337-2.77-7.5l-2-5z"/><path fill="#fff" d="m745 483 11-6 2 13-5.999-1.513c-3.965-1-6.339-2.186-8.001-5.487z"/><path fill="#799caf" d="m704 401 2-1 3.574 12.75c1.966 7.013 3.991 13.538 5.426 16.25l-1 1h-3z"/><path fill="#cadbd9" d="M765 403c-2.224-5.237-3.57-10.075-4.427-14.129s-1.839-8.384-2.182-9.621c-.461-1.663-.203-2.25.992-2.25H762l5 22-.75-.008c-.413-.004-.862.896-1.25 4.008"/><path fill="#e6605f" d="M719 335c-3.164-8.913-3.839-12.288-3.541-13.25L716 320c4.34 0 6.14.45 6.8 1l1.2 1 1 3v1l-3 1.084c-4.436 1.603-3.874 4.926 1 5.916v1z"/><path fill="#6c97c6" d="M829 435c-.582.841-3.348-.064-6.522-1.468l-5.772-2.552-1.379-13.99c-.759-7.695-1.142-13.99-.853-13.99H815l1.021.821c.562.452 1.462 6.077 2.979 24.179v.515c0 .283 2.25 1.401 5 2.485s5 2.427 5 4"/><path fill="#789dc4" d="M806 453c0 6.257.913 7.512 6.989 9.613L817 464c-1.446 3.027-2.077 2.944-6.515.851-2.742-1.293-5.252-2.713-5.578-3.156-.792-1.076-3.114-22.695-2.437-22.695h.53z"/><path fill="#6c97c6" d="m872 428-1.007 22.963 5.004 2.518L881 456l1 2c-1.938-.098-4.862-1.198-7.75-2.508l-5.25-2.381V438c.872-7.362 1.546-9.612 2.062-9.75z"/><path fill="#f6828a" d="M918 472c13.562-8.45 18.245-10.925 19.156-10.952 1.604-.047 4.168 2.679 3.951 4.202L941 466h-1c-1.162-.361-3.462.574-5.861 1.844s-6.063 2.466-8.141 2.656-4.728.831-5.888 1.423L918 473z"/><path fill="#d67358" d="M586 201v2c-6.586 1.048-9.054.602-12.823-1.019-5.54-2.383-11.485-8.178-10.982-10.706.231-1.161 2.238-.288 8.305 3.613 4.657 2.995 9.567 5.346 11.75 5.628z"/><path fill="#799caf" d="M778 498c-1.375 2.63-2.619 2.417-8.23.154-3.702-1.493-7.158-3.151-7.681-3.684s-1.207-5.582-1.52-11.22L760 473c3.833.779 4 1.615 4 10.438 0 7.681.303 9.719 1.5 10.093l1.5.469c4.263 1.85 6.259 3.018 7.187 3.791s2.165 1.136 2.75.807z"/><path fill="#c2f2ee" d="M591.47 224c.811 0 2.262 1.462 3.224 3.25 1.438 2.672 1.754 5.903 1.776 18.161.02 11.056-.297 15.02-1.224 15.333-.959.324-1.255-2.793-1.272-13.411-.018-11.615-.339-14.532-2-18.192-2.367-5.216-2.36-5.141-.504-5.141"/><path fill="#89afd2" d="m764 406 1-3c.388-3.112.837-4.012 1.25-4.008l.75.008c1.45 7.397 2.325 8.693 7.958 11.783L779 413l-2 1c-9.816-3.823-12.607-5.541-12.75-6.434z"/><path fill="#2a3070" d="M926.75 445.03c5.285 2.346 6.372 3.606 3.922 4.546-2.034.78-38.672-15.785-38.672-17.485 0-2.891 1.963-2.268 21.153 6.706 4.591 2.147 10.709 4.951 13.597 6.233M761 545c1.731 10.075 1.956 13 1.617 13H762l-3.994-1.038c-3.672-.955-4.035-1.358-5.006-8.962z"/><path fill="#cadbd9" d="M697 508c-6.615-3.37-8-4.755-8-6.038V500c2.927 3.407 7.429 5.322 10.691 4.548L702 504h3c1.729 4.729 2.03 6.303 1.785 6.548s-2.547-.228-5.115-1.051z"/><path fill="#8ea1c0" d="M704 479h3c-1.262.944-.349 6.934 2.629 17.25L711 501l1 5-1 6c-.834-3.487-2.409-10.913-4.038-18.75z"/><path fill="#c2f2ee" d="M575.36 228c3.433 0 4.14 3.923 4.141 23 .001 15.778-.22 18.5-1.499 18.5-1.282 0-1.451-2.184-1.163-15 .306-13.616-.273-19.775-2.328-24.75-.508-1.231-.257-1.75.849-1.75"/><path fill="#6c97c6" d="m826 468-5 1c-1.424-4.992-2.099-11.067-2.419-16.721L818 442c0-3.191.412-3.864.915-3.553s1.386 6.562 1.964 13.891c.925 11.736 1.293 13.464 3.086 14.493z"/><path fill="#9451c1" d="m798 495-1 10-5.75-2.057c-3.163-1.132-6.087-2.482-7.25-3.943 7.647-1.44 10.796-2.34 11.933-2.929z"/><path fill="#8bc344" d="m809 518 7.266 2.226-.633 6.887L815 534l-.962.535c-2.261 1.259-5.133-8.169-5.038-16.535"/><path fill="#fff" d="m734 504-4 6-1.472-8.141c-.809-4.478-1.259-8.528-.528-9.859h2z"/><path fill="#e5d6f7" d="m785 463 4.898 1.699c4.791 1.661 4.978 1.65 12.102-2.699l1 8-2.75-.387c-4.739-.667-13.537-4.482-15.25-6.613"/><path fill="#94c1e5" d="M724 517c-10.075-3.163-13-4.288-13-4.541V512l1-6c1.925 4.459 3.513 5.436 7.597 6.54L725 514v1z"/><path fill="#a080c1" d="M766 502c6.405 1.866 8.88 3.023 9.632 3.775s1.368 3.36 1.368 5.796V518c-2.157-5.812-4.631-9.413-6.891-11.75z"/><path fill="#cadbd9" d="M705 627c-1.356.747-1.75-.134-1.75-1.476 0-1.925-.87-2.789-4.125-4.091-2.269-.908-4.125-2.277-4.125-3.042V617c11.664 4.263 15.039 5.838 15.025 6.25L710 624z"/><path fill="#f16b23" d="M844.98 480.51c1.875-1.697 2.222-1.704 6.25-.138 8.293 3.225 11.314 7.625 5.234 7.625-2.251 0-13.469-4.406-13.469-5.29 0-.22.893-1.209 1.985-2.197"/><path fill="#342a51" d="M871 631c2.261-4.665 4.511-6.915 6.459-8.01L881 621l1 5-4.499 3.084c-2.474 1.696-4.949 2.821-6.501 1.916"/><path fill="#94bdc8" d="M682 437c5.231-1.302 9 1.001 9 5.5v2.5c-4.65.621-6 1.07-6 1.4v.6z"/><path fill="#7da0d5" d="m697 508-12-4v-2l.567-4.2c.386-2.86.865-3.817 2.433-1.8l1 4v1.962c0 1.283 1.385 2.668 8 6.038"/><path fill="#2a3070" d="M774.74 377.24c1.413 1.129.758 2.764-1.108 2.764-1.964 0-15.631-6.98-15.631-7.983 0-2.246 2.584-1.946 8.791 1.022 3.69 1.764 7.267 3.652 7.948 4.197"/><path fill="#799caf" d="M743 494c1.649-.928 4.124-.253 6.564.901L754 497c-.777 1.036-2.137.729-3.522-.012-3.186-1.705-4.638-.441-5.125 4.459L745 505zM758 490c-1.464 3.053-2.385 2.88-8.777.12L742 487l2-4c1.662 3.301 4.036 4.487 8.001 5.487z"/><path fill="#cadbd9" d="M827 675c-1.162-4.007-2.56-5.736-3.857-6.428-2.109-1.125-1.712-1.248 3.764-1.174 4.504.061 5.987.415 5.608 1.342L832 670z"/><path fill="#4963aa" d="M761 377h-1.617c-1.195 0-1.453.587-.992 2.25.343 1.237 1.325 5.567 2.182 9.621S762.776 397.763 765 403l-1 3-3.947-14.75c-2.171-8.114-3.564-15.134-3.096-15.604.47-.471 1.565-.359 4.043 1.354"/><path fill="#455f79" d="M756 472c-1.366-5.918-2.481-6.978-6.978-9.168-3.013-1.468-5.825-2.48-6.25-2.25L742 461l-1.5-.573c-.941-.36-1.5.013-1.5 2.573l-1-4c4.355-1.342 15.154 1.968 17.573 5.386.886 1.253 1.278 3.234.961 4.864z"/><path fill="#89afd2" d="m853 477-2-1c.388-19.378.838-25.003 1.25-25.002l.75.002z"/><path fill="#ae6ada" d="M794.01 443c1.623 1.925 3.223 4.309 3.555 5.298.615 1.832-1.053 4.702-2.734 4.702-1.409 0-3.83-6.51-3.8-10.218l.027-3.282z"/><path fill="#2a3070" d="M745 547c1.893 1.064 2.419 6 .639 6H745l-3.25-.808c-2.736-.68-3.29-1.312-3.75-7.192z"/><path fill="#235571" d="M810 424v-10l.662 2.75c.483 2.006.774 2.277 1.074 1 .226-.962.849-1.75 1.384-1.75s.953 2.475.88 11z"/><path fill="#1c6e96" d="m881 621 1-2 .75-.033c.412-.018 1.987.656 6.25 3.033l-7 4z"/><path fill="#fff" d="m791 429 1-2 1.513-.612c3.043-1.231 4.326 1.954 5.487 13.612-6.351-7.362-8.151-9.837-8.097-10.25z"/><path fill="#455f79" d="m742 465 1 11h-2l-2-11z"/><path fill="#2a3070" d="m712 543-6-2c0-2.172 5.396-5.446 7.59-4.604 1.88.721 1.809 5.542-.09 6.135z"/><path fill="#89afd2" d="M855 444c8.138 4.535 10.162 5.885 9.75 5.926L864 450h-2l-2-1h-1l-1-1h-1l-1-1h-1l-2.175-1.225 1.087-.887z"/><path fill="#455f79" d="m744 479 1 4h-1l-2 4-1-8z"/><path fill="#ae3445" d="M633 373c0-2.437.947-3 2.525-3 2.034 0 2.648.615 3.157 3.158.577 2.885.445 3.101-1.525 2.5L635 375z"/><path fill="#f53f52" d="m726 487 5 1-1 4h-2.639c-.351 0-.801-1.125-1.361-5"/><path fill="#804d3a" d="M609 153c-8.047.86-9 .644-9-.538 0-1.04 1.38-1.648 4.5-1.981L609 150z"/><path fill="#fff" d="m889 471 1-4h2l1 1h1l.063.75c.034.413-.602 1.65-1.414 2.75-1.157 1.567-1.711 1.73-3.649-.5"/><path fill="#733e2b" d="M580.25 154.63c3.969-1.064 6.75-.705 6.75.87 0 .885-.923 1.506-2.25 1.514-1.237.008-3.263.284-4.5.616-1.601.429-2.25.171-2.25-.897 0-.825 1.013-1.771 2.25-2.103"/><path fill="#fef5ed" d="M588 183h6l-1 4c-3.385 0-4.343-.766-4.594-2z"/><path fill="#fff" d="M594 183c6.253-1.379 8.727.139 5.081 3.118-1.372 1.121-3.211 1.74-4.25 1.429L593 187z"/><path fill="#f16b23" d="m726 524 2 1v3l-1 2-2-2v-3z"/><path fill="#ac849e" d="M742 461v4h-3v-2c0-2.56.559-2.933 1.5-2.573z"/><path fill="#89afd2" d="m907 462 2-16 1.095 1.262c1.629 1.878-.59 12.448-3.095 14.738M890 467l-1 4h-2l1-4 1-1h1z"/><path fill="#8f2046" d="M723 333c-4.874-.99-5.436-4.313-1-5.916l3-1.084z"/><path fill="#799caf" d="m807 664 .526 26.5 4.186 1.951c3.974 1.852 4.282 1.864 6.096.222 1.051-.951 2.425-2.616 3.052-3.701L822 687c1.008 9.062.755 10.245-.949 11.949-9.167 9.167-25.044-12.673-16.551-22.767 1.875-2.228 2.5-4.122 2.5-7.576z"/><path fill="#b3cecf" d="M466 567c-3.564 1.099-4 .773-4-.883 0-1.45.63-2.117 2-2.117h2z"/><path fill="#6a3d2a" d="M604.75 157.19c.962.185 1.75 1.225 1.75 2.31s-.788 2.125-1.75 2.31c-1.311.252-1.75-.328-1.75-2.31s.439-2.562 1.75-2.31"/><path fill="#6a3d2d" d="M583.75 161.19c.962.185 1.75 1.225 1.75 2.31s-.788 2.125-1.75 2.31c-1.311.252-1.75-.328-1.75-2.31s.439-2.562 1.75-2.31"/><path fill="#a587a0" d="m743 476 1 3h-3v-3z"/><path fill="#d29aa1" d="m714 430-1 3c-1.628-1.163-2.078-1.837-2.05-2.25l.05-.75z"/><path fill="#eef9fc" d="M719.5 522c.825 0 1.5.675 1.5 1.5s-.675 1.5-1.5 1.5-1.5-.675-1.5-1.5.675-1.5 1.5-1.5"/><path fill="#6e9fdd" d="m679 481-1-3c2.451 0 3.003.666 2.823 1.506-.178.828-.66 1.503-1.073 1.5z"/><path fill="#8642b8" d="m777 516 1 1v3l-1 1v-5"/><path fill="#89afd2" d="M784 409h-1l-1-5c1.642 2.712 2.092 3.837 2.059 4.25z"/><path fill="#8ea1c0" d="M696 467c.388 1.938-.062 2.388-.75 2.25L694 469l1-2z"/><path fill="#f16b23" d="M820 493v2c-1.739.981-2.049.564-1.846-.388.19-.894.684-1.621 1.096-1.618z"/><path fill="#89afd2" d="m881 456 2 2h-1z"/><path fill="#6c97c6" d="M864 450v1h-1v-1z"/><path fill="#49778f" d="m863 451-1-1h1zM858 449l-1-1h1zM856 448l-1-1h1z"/><path fill="#6c97c6" d="M891 467h-1v-1z"/><path fill="#2a3070" d="M777.5 529c.275 0 .5.225.5.5s-.225.5-.5.5-.5-.225-.5-.5.225-.5.5-.5"/><path fill="#12272d" d="M601 384.5c0 .275-.225.5-.5.5s-.5-.225-.5-.5.225-.5.5-.5.5.225.5.5"/><path fill="#147e78" d="M552.5 221c.275 0 .5.225.5.5s-.225.5-.5.5-.5-.225-.5-.5.225-.5.5-.5"/><path fill="#f68b8f" d="M915.5 476c.275 0 .5.225.5.5s-.225.5-.5.5-.5-.225-.5-.5.225-.5.5-.5"/><path fill="#cadbd9" d="m825.85 675.5.15.5-.15.5c-.082.275-.15.05-.15-.5s.068-.775.15-.5"/></svg>